<svg id="Layer_1" data-name="Layer 1" xmlns="http://www.w3.org/2000/svg" xmlns:xlink="http://www.w3.org/1999/xlink" width="260" height="100" viewBox="0 0 260 100">
  <defs>
    <style>
      .cls-1 {
        fill: #282827;
      }

      .cls-2 {
        fill: #29b57f;
      }

      .cls-3, .cls-4 {
        fill: #4a79bc;
      }

      .cls-11, .cls-13, .cls-15, .cls-3, .cls-6, .cls-8 {
        fill-rule: evenodd;
      }

      .cls-5 {
        fill: #fff;
      }

      .cls-6 {
        fill: url(#linear-gradient);
      }

      .cls-7, .cls-8 {
        fill: #5b4538;
      }

      .cls-9 {
        fill: url(#linear-gradient-2);
      }

      .cls-10 {
        fill: #c8bca8;
      }

      .cls-11 {
        fill: url(#linear-gradient-3);
      }

      .cls-12 {
        fill: #d8273c;
      }

      .cls-13 {
        fill: url(#linear-gradient-4);
      }

      .cls-14 {
        fill: #a99675;
      }

      .cls-15 {
        fill: url(#linear-gradient-5);
      }

      .cls-16 {
        fill: url(#linear-gradient-6);
      }

      .cls-17 {
        fill: #b5a584;
      }

      .cls-18 {
        fill: #cabb9c;
      }

      .cls-19 {
        fill: url(#linear-gradient-7);
      }

      .cls-20 {
        fill: url(#linear-gradient-8);
      }

      .cls-21 {
        fill: #f8f3de;
      }
    </style>
    <linearGradient id="linear-gradient" x1="55.92" y1="43.08" x2="255.71" y2="43.08" gradientTransform="matrix(1, 0, 0, -1, 0, 102)" gradientUnits="userSpaceOnUse">
      <stop offset="0" stop-color="#3b2519"/>
      <stop offset="0.03" stop-color="#3f2719"/>
      <stop offset="0.27" stop-color="#5c331b"/>
      <stop offset="0.48" stop-color="#6e3b1d"/>
      <stop offset="0.64" stop-color="#743e1d"/>
      <stop offset="0.74" stop-color="#6f3c1c"/>
      <stop offset="0.86" stop-color="#61351a"/>
      <stop offset="0.99" stop-color="#4a2b17"/>
      <stop offset="1" stop-color="#482a17"/>
    </linearGradient>
    <linearGradient id="linear-gradient-2" x1="7.21" y1="73.61" x2="65.53" y2="73.61" gradientTransform="matrix(1, 0, 0, -1, 0, 102)" gradientUnits="userSpaceOnUse">
      <stop offset="0.04" stop-color="#f9f9ec"/>
      <stop offset="0.42" stop-color="#f9f9ec"/>
      <stop offset="0.49" stop-color="#f3f1e2"/>
      <stop offset="0.62" stop-color="#e4ddc6"/>
      <stop offset="0.79" stop-color="#ccbc9a"/>
      <stop offset="0.8" stop-color="#caba97"/>
      <stop offset="1" stop-color="#baa685"/>
    </linearGradient>
    <linearGradient id="linear-gradient-3" x1="18.74" y1="52.7" x2="49.71" y2="52.7" gradientTransform="matrix(1, 0, 0, -1, 0, 102)" gradientUnits="userSpaceOnUse">
      <stop offset="0" stop-color="#e3606e"/>
      <stop offset="0.03" stop-color="#e5737d"/>
      <stop offset="0.08" stop-color="#e78188"/>
      <stop offset="0.13" stop-color="#e8898e"/>
      <stop offset="0.22" stop-color="#e88b90"/>
      <stop offset="0.35" stop-color="#e9868b"/>
      <stop offset="0.51" stop-color="#ec787d"/>
      <stop offset="0.68" stop-color="#f16167"/>
      <stop offset="1" stop-color="#d8273c"/>
    </linearGradient>
    <linearGradient id="linear-gradient-4" x1="8.55" y1="80.26" x2="14.17" y2="80.26" gradientTransform="matrix(1, 0, 0, -1, 0, 102)" gradientUnits="userSpaceOnUse">
      <stop offset="0" stop-color="#e8dbca"/>
      <stop offset="1" stop-color="#f2ecde"/>
    </linearGradient>
    <linearGradient id="linear-gradient-5" x1="16.86" y1="86.35" x2="19.95" y2="81.85" gradientTransform="matrix(1, 0, 0, -1, 0, 102)" gradientUnits="userSpaceOnUse">
      <stop offset="0" stop-color="#ece1d1"/>
      <stop offset="0.43" stop-color="#eee6d9"/>
      <stop offset="1" stop-color="#efe9de"/>
    </linearGradient>
    <linearGradient id="linear-gradient-6" x1="25.34" y1="82.87" x2="31.06" y2="82.87" gradientTransform="matrix(1, 0, 0, -1, 0, 102)" gradientUnits="userSpaceOnUse">
      <stop offset="0" stop-color="#ece1d1"/>
      <stop offset="1" stop-color="#ede4d5"/>
    </linearGradient>
    <linearGradient id="linear-gradient-7" x1="47.45" y1="83.25" x2="47.31" y2="75.7" gradientTransform="matrix(1, 0, 0, -1, 0, 102)" gradientUnits="userSpaceOnUse">
      <stop offset="0" stop-color="#baa68a"/>
      <stop offset="1" stop-color="#c7baa0"/>
    </linearGradient>
    <linearGradient id="linear-gradient-8" x1="50.81" y1="72.92" x2="60.95" y2="72.92" gradientTransform="matrix(1, 0, 0, -1, 0, 102)" gradientUnits="userSpaceOnUse">
      <stop offset="0" stop-color="#bdae99"/>
      <stop offset="0.26" stop-color="#bfb19c"/>
      <stop offset="1" stop-color="#c2b5a1"/>
    </linearGradient>
  </defs>
  <g>
    <path class="cls-1" d="M116.44,95.21h-.61a.29.29,0,0,1-.17,0,.36.36,0,0,1-.1-.14L115,93.54h-2.64L111.8,95a.42.42,0,0,1-.09.14.25.25,0,0,1-.17.06h-.61l2.36-6.12h.8Zm-1.66-2.27-.92-2.49a2.56,2.56,0,0,1-.09-.26l-.09-.31a4.9,4.9,0,0,1-.18.57l-.93,2.48h2.21Z"/>
    <path class="cls-1" d="M117.64,91.51a2.62,2.62,0,0,1,.3-.28,1.66,1.66,0,0,1,.32-.22,1.14,1.14,0,0,1,.36-.15,1.79,1.79,0,0,1,.42,0,1.43,1.43,0,0,1,.6.12,1.32,1.32,0,0,1,.43.34,1.25,1.25,0,0,1,.27.51,2.38,2.38,0,0,1,.09.68v2.75h-.74V92.46a1.24,1.24,0,0,0-.21-.77.78.78,0,0,0-.66-.27,1.12,1.12,0,0,0-.6.16,2.14,2.14,0,0,0-.53.44v3.19H117V90.88h.44a.18.18,0,0,1,.19.17Z"/>
    <path class="cls-1" d="M176.37,94.54v.67h-3.63V89.09h3.63v.67h-2.83v2h2.29v.65h-2.29v2.08h2.83Z"/>
    <path class="cls-1" d="M180.51,88.93v6.29h-.44a.18.18,0,0,1-.19-.16l-.07-.52a2.29,2.29,0,0,1-.6.53,1.52,1.52,0,0,1-.79.2,1.63,1.63,0,0,1-.66-.14,1.23,1.23,0,0,1-.49-.42A2.16,2.16,0,0,1,177,94a3.82,3.82,0,0,1-.11-1,3.07,3.07,0,0,1,.12-.88,2.2,2.2,0,0,1,.35-.72,1.6,1.6,0,0,1,1.32-.65,1.5,1.5,0,0,1,.66.13,1.75,1.75,0,0,1,.48.38V88.93Zm-.74,3a1.25,1.25,0,0,0-.44-.4,1.33,1.33,0,0,0-.54-.11,1,1,0,0,0-.88.43,2,2,0,0,0-.32,1.23,3.12,3.12,0,0,0,.07.73,1.3,1.3,0,0,0,.21.49.91.91,0,0,0,.33.29,1,1,0,0,0,.44.09,1.14,1.14,0,0,0,.64-.18,1.71,1.71,0,0,0,.49-.48V91.91Z"/>
    <path class="cls-1" d="M185,90.88v4.33h-.44a.19.19,0,0,1-.2-.16l-.06-.46a2.23,2.23,0,0,1-.61.5,1.49,1.49,0,0,1-.77.19,1.44,1.44,0,0,1-.61-.12,1.18,1.18,0,0,1-.43-.33,1.41,1.41,0,0,1-.26-.52,2.29,2.29,0,0,1-.09-.66V90.88h.73v2.77a1.18,1.18,0,0,0,.21.75.79.79,0,0,0,.66.28,1,1,0,0,0,.6-.17,1.83,1.83,0,0,0,.53-.44V90.88Z"/>
    <path class="cls-1" d="M189,91.65a.23.23,0,0,1-.07.07s0,0-.09,0a.24.24,0,0,1-.13,0l-.18-.12-.28-.12a1.06,1.06,0,0,0-.38,0,1.33,1.33,0,0,0-.54.11,1,1,0,0,0-.4.32,1.67,1.67,0,0,0-.24.52,2.73,2.73,0,0,0-.08.67,2.48,2.48,0,0,0,.09.7,1.72,1.72,0,0,0,.24.51,1.1,1.1,0,0,0,.39.32,1.18,1.18,0,0,0,.5.11,1.13,1.13,0,0,0,.44-.07,1,1,0,0,0,.29-.16,1,1,0,0,0,.19-.15.24.24,0,0,1,.15-.06.15.15,0,0,1,.14.07l.2.29a1.26,1.26,0,0,1-.31.3,1.65,1.65,0,0,1-.37.2,3,3,0,0,1-.43.12,2.12,2.12,0,0,1-.44,0,1.77,1.77,0,0,1-.73-.15,1.72,1.72,0,0,1-.58-.43A2.26,2.26,0,0,1,186,94a3,3,0,0,1-.14-.94,2.86,2.86,0,0,1,.13-.89,2.14,2.14,0,0,1,.38-.7A1.78,1.78,0,0,1,187,91a2,2,0,0,1,.84-.17,1.94,1.94,0,0,1,.78.15,2,2,0,0,1,.59.42Z"/>
    <path class="cls-1" d="M189.83,91.5a2.43,2.43,0,0,1,.74-.52,2.35,2.35,0,0,1,.89-.17,1.52,1.52,0,0,1,.62.12,1.41,1.41,0,0,1,.45.34,1.56,1.56,0,0,1,.28.51,2.36,2.36,0,0,1,.09.67v2.76h-.32a.24.24,0,0,1-.16,0,.21.21,0,0,1-.09-.14l-.08-.41a2.88,2.88,0,0,1-.33.28,1.38,1.38,0,0,1-.33.2,2,2,0,0,1-.37.13,1.9,1.9,0,0,1-.44,0,1.33,1.33,0,0,1-.45-.07A1.23,1.23,0,0,1,190,95a1,1,0,0,1-.25-.35,1.38,1.38,0,0,1-.1-.52,1.1,1.1,0,0,1,.14-.49,1.3,1.3,0,0,1,.44-.43,2.8,2.8,0,0,1,.8-.3,5.56,5.56,0,0,1,1.2-.13v-.33a1.14,1.14,0,0,0-.22-.77.74.74,0,0,0-.61-.26,1.18,1.18,0,0,0-.45.07,1.36,1.36,0,0,0-.32.16l-.23.16a.3.3,0,0,1-.19.07.2.2,0,0,1-.13,0,.43.43,0,0,1-.09-.1Zm2.37,1.76a6.16,6.16,0,0,0-.86.08,3.67,3.67,0,0,0-.58.18.7.7,0,0,0-.32.25.53.53,0,0,0-.1.32.84.84,0,0,0,0,.29.52.52,0,0,0,.14.21.51.51,0,0,0,.22.11,1.26,1.26,0,0,0,.28,0,1.29,1.29,0,0,0,.35,0,1.34,1.34,0,0,0,.3-.12l.27-.19a1.48,1.48,0,0,0,.26-.24v-.89Z"/>
    <path class="cls-1" d="M195.17,95.28a1,1,0,0,1-.75-.28,1.11,1.11,0,0,1-.27-.83V91.52h-.5a.15.15,0,0,1-.11,0,.17.17,0,0,1,0-.12v-.3l.68-.1.17-1.34a.24.24,0,0,1,.06-.1.15.15,0,0,1,.11,0h.37V91h1.21v.56h-1.21v2.59a.52.52,0,0,0,.13.4.39.39,0,0,0,.32.14.71.71,0,0,0,.21,0,.46.46,0,0,0,.14-.07l.1-.08a.13.13,0,0,1,.08,0s.07,0,.1.07l.21.37a1.51,1.51,0,0,1-.45.29A1.72,1.72,0,0,1,195.17,95.28Z"/>
    <g>
      <path class="cls-1" d="M216.63,95.21h-.79V89.09h.79Z"/>
      <path class="cls-1" d="M218.51,91.51a2.54,2.54,0,0,1,.29-.28,1.46,1.46,0,0,1,.33-.22,1.14,1.14,0,0,1,.36-.15,1.77,1.77,0,0,1,.41,0,1.48,1.48,0,0,1,.61.12,1.32,1.32,0,0,1,.43.34,1.37,1.37,0,0,1,.26.51,2.38,2.38,0,0,1,.09.68v2.75h-.73V92.46a1.24,1.24,0,0,0-.21-.77.81.81,0,0,0-.66-.27,1.18,1.18,0,0,0-.61.16,1.94,1.94,0,0,0-.52.44v3.19h-.74V90.88h.45a.18.18,0,0,1,.19.17Z"/>
      <path class="cls-1" d="M223.26,89.53a.52.52,0,0,1,0,.21.78.78,0,0,1-.11.18.52.52,0,0,1-.17.12.45.45,0,0,1-.2,0,.49.49,0,0,1-.21,0,.61.61,0,0,1-.16-.12.67.67,0,0,1-.11-.18.46.46,0,0,1,0-.21.52.52,0,0,1,0-.21.5.5,0,0,1,.11-.17.61.61,0,0,1,.16-.12.49.49,0,0,1,.21,0,.45.45,0,0,1,.2,0,.66.66,0,0,1,.17.12.45.45,0,0,1,.11.17A.65.65,0,0,1,223.26,89.53Zm-.16,1.35v4.33h-.74V90.88Z"/>
    </g>
    <path class="cls-1" d="M225.68,95.28a1,1,0,0,1-.76-.28,1.15,1.15,0,0,1-.26-.83V91.52h-.5a.15.15,0,0,1-.11,0,.17.17,0,0,1-.05-.12v-.3l.68-.1.17-1.34a.23.23,0,0,1,.05-.1.16.16,0,0,1,.12,0h.37V91h1.21v.56h-1.21v2.59a.52.52,0,0,0,.13.4.39.39,0,0,0,.32.14.6.6,0,0,0,.2,0l.15-.07.1-.08a.13.13,0,0,1,.08,0s.07,0,.1.07l.21.37a1.51,1.51,0,0,1-.45.29A1.72,1.72,0,0,1,225.68,95.28Z"/>
    <path class="cls-1" d="M228.36,89.53a.52.52,0,0,1,0,.21.78.78,0,0,1-.11.18A.52.52,0,0,1,228,90a.52.52,0,0,1-.4,0,.61.61,0,0,1-.16-.12.67.67,0,0,1-.11-.18.36.36,0,0,1-.05-.21.41.41,0,0,1,.05-.21.5.5,0,0,1,.11-.17.61.61,0,0,1,.16-.12.52.52,0,0,1,.4,0,.66.66,0,0,1,.17.12.45.45,0,0,1,.11.17A.65.65,0,0,1,228.36,89.53Zm-.15,1.35v4.33h-.73V90.88Z"/>
    <g>
      <g>
        <path class="cls-1" d="M229.32,91.5a2.47,2.47,0,0,1,.75-.52,2.28,2.28,0,0,1,.89-.17,1.44,1.44,0,0,1,.61.12,1.42,1.42,0,0,1,.74.85,2.36,2.36,0,0,1,.09.67v2.76h-.32a.25.25,0,0,1-.17,0,.21.21,0,0,1-.09-.14l-.08-.41a4,4,0,0,1-.32.28,1.38,1.38,0,0,1-.33.2,2.12,2.12,0,0,1-.38.13,1.88,1.88,0,0,1-.43,0,1.33,1.33,0,0,1-.45-.07,1.17,1.17,0,0,1-.38-.21,1,1,0,0,1-.25-.35,1.38,1.38,0,0,1-.09-.52,1.09,1.09,0,0,1,.13-.49,1.3,1.3,0,0,1,.44-.43,3,3,0,0,1,.8-.3,5.64,5.64,0,0,1,1.2-.13v-.33a1.2,1.2,0,0,0-.21-.77.75.75,0,0,0-.62-.26,1.18,1.18,0,0,0-.45.07,1.49,1.49,0,0,0-.31.16l-.23.16a.31.31,0,0,1-.2.07.2.2,0,0,1-.13,0,.43.43,0,0,1-.09-.1Zm2.37,1.76a6.48,6.48,0,0,0-.86.08,3.22,3.22,0,0,0-.57.18.76.76,0,0,0-.32.25.53.53,0,0,0-.1.32.84.84,0,0,0,0,.29.52.52,0,0,0,.14.21.51.51,0,0,0,.22.11,1.1,1.1,0,0,0,.27,0,1.29,1.29,0,0,0,.35,0,1.25,1.25,0,0,0,.31-.12l.27-.19a1.88,1.88,0,0,0,.25-.24v-.89Z"/>
        <path class="cls-1" d="M234.67,95.28a1,1,0,0,1-.76-.28,1.15,1.15,0,0,1-.26-.83V91.52h-.51a.15.15,0,0,1-.11,0,.17.17,0,0,1-.05-.12v-.3l.69-.1.17-1.34a.23.23,0,0,1,0-.1.15.15,0,0,1,.11,0h.37V91h1.21v.56h-1.21v2.59a.49.49,0,0,0,.14.4.39.39,0,0,0,.32.14.6.6,0,0,0,.2,0,.46.46,0,0,0,.14-.07l.1-.08a.13.13,0,0,1,.08,0s.07,0,.1.07l.22.37a1.7,1.7,0,0,1-.46.29A1.66,1.66,0,0,1,234.67,95.28Z"/>
      </g>
      <g>
        <path class="cls-1" d="M237.37,89.53a.52.52,0,0,1,0,.21.78.78,0,0,1-.11.18.52.52,0,0,1-.17.12.45.45,0,0,1-.2,0,.46.46,0,0,1-.21,0,.61.61,0,0,1-.16-.12.67.67,0,0,1-.11-.18.46.46,0,0,1,0-.21.52.52,0,0,1,0-.21.5.5,0,0,1,.11-.17.61.61,0,0,1,.16-.12.46.46,0,0,1,.21,0,.45.45,0,0,1,.2,0,.66.66,0,0,1,.17.12.45.45,0,0,1,.11.17A.65.65,0,0,1,237.37,89.53Zm-.15,1.35v4.33h-.74V90.88Z"/>
        <path class="cls-1" d="M241.91,90.88l-1.7,4.33h-.65l-1.7-4.33h.6a.25.25,0,0,1,.15.05.32.32,0,0,1,.08.12l1.06,2.78.09.31c0,.1,0,.2.07.3,0-.1.05-.2.07-.3s.05-.2.09-.31l1.07-2.78a.21.21,0,0,1,.08-.12.22.22,0,0,1,.14-.05Z"/>
        <path class="cls-1" d="M245.76,94.61a1.47,1.47,0,0,1-.32.29,3,3,0,0,1-.4.21,3.74,3.74,0,0,1-.45.12,2.28,2.28,0,0,1-.45,0,2,2,0,0,1-.8-.15,1.71,1.71,0,0,1-.62-.44,2,2,0,0,1-.42-.73,3,3,0,0,1-.15-1,3,3,0,0,1,.13-.85,2.25,2.25,0,0,1,.38-.68,2.18,2.18,0,0,1,.62-.46,1.94,1.94,0,0,1,.82-.16,1.73,1.73,0,0,1,.69.13,2,2,0,0,1,.56.38,1.63,1.63,0,0,1,.36.6,2.35,2.35,0,0,1,.13.82.45.45,0,0,1,0,.24s-.07.06-.14.06h-2.78a2.53,2.53,0,0,0,.11.72,1.27,1.27,0,0,0,.68.81,1.33,1.33,0,0,0,.54.1,1.63,1.63,0,0,0,.47-.06l.35-.15.24-.14a.32.32,0,0,1,.16-.06.15.15,0,0,1,.14.07Zm-.58-2a1.61,1.61,0,0,0-.07-.49,1.19,1.19,0,0,0-.22-.38.88.88,0,0,0-.33-.24,1,1,0,0,0-.44-.09,1.09,1.09,0,0,0-.84.32,1.55,1.55,0,0,0-.38.88Z"/>
      </g>
    </g>
    <g>
      <path class="cls-1" d="M200.61,90.81a2.08,2.08,0,0,1,.83.16,1.76,1.76,0,0,1,.62.46,1.9,1.9,0,0,1,.39.7,3,3,0,0,1,.14.92,2.87,2.87,0,0,1-.14.92,2.23,2.23,0,0,1-.39.71,1.71,1.71,0,0,1-.62.44,2.37,2.37,0,0,1-1.66,0,1.71,1.71,0,0,1-.62-.44,1.9,1.9,0,0,1-.4-.71,2.91,2.91,0,0,1-.14-.92,3,3,0,0,1,.14-.92,1.86,1.86,0,0,1,.4-.7,2,2,0,0,1,.62-.46A2.19,2.19,0,0,1,200.61,90.81Zm0,3.87a1.05,1.05,0,0,0,.92-.43,2,2,0,0,0,.3-1.2,2.07,2.07,0,0,0-.3-1.2,1.09,1.09,0,0,0-.92-.43,1.31,1.31,0,0,0-.55.11,1,1,0,0,0-.38.32,1.46,1.46,0,0,0-.23.52,2.82,2.82,0,0,0-.08.68,2.07,2.07,0,0,0,.3,1.2A1.08,1.08,0,0,0,200.61,94.68Z"/>
      <path class="cls-1" d="M204.13,91.51a2.54,2.54,0,0,1,.29-.28,1.66,1.66,0,0,1,.32-.22,1.2,1.2,0,0,1,.37-.15,1.77,1.77,0,0,1,.41,0,1.43,1.43,0,0,1,.6.12,1.27,1.27,0,0,1,.44.34,1.37,1.37,0,0,1,.26.51,2.38,2.38,0,0,1,.09.68v2.75h-.73V92.46a1.24,1.24,0,0,0-.22-.77.78.78,0,0,0-.65-.27,1.16,1.16,0,0,0-.61.16,1.94,1.94,0,0,0-.52.44v3.19h-.74V90.88h.45a.18.18,0,0,1,.19.17Z"/>
      <path class="cls-1" d="M207.84,91.5a2.36,2.36,0,0,1,.75-.52,2.26,2.26,0,0,1,.88-.17,1.46,1.46,0,0,1,.62.12,1.41,1.41,0,0,1,.45.34,1.56,1.56,0,0,1,.28.51,2,2,0,0,1,.1.67v2.76h-.33a.24.24,0,0,1-.16,0,.21.21,0,0,1-.09-.14l-.08-.41a4,4,0,0,1-.32.28,1.27,1.27,0,0,1-.34.2,2,2,0,0,1-.37.13,1.88,1.88,0,0,1-.43,0,1.39,1.39,0,0,1-.46-.07A1.23,1.23,0,0,1,208,95a1,1,0,0,1-.25-.35,1.38,1.38,0,0,1-.09-.52,1.09,1.09,0,0,1,.13-.49,1.3,1.3,0,0,1,.44-.43,2.92,2.92,0,0,1,.8-.3,5.64,5.64,0,0,1,1.2-.13v-.33a1.2,1.2,0,0,0-.21-.77.76.76,0,0,0-.62-.26,1.18,1.18,0,0,0-.45.07,1.49,1.49,0,0,0-.31.16l-.24.16a.3.3,0,0,1-.19.07.2.2,0,0,1-.13,0,.43.43,0,0,1-.09-.1Zm2.36,1.76a6.32,6.32,0,0,0-.86.08,3.22,3.22,0,0,0-.57.18.8.8,0,0,0-.33.25.53.53,0,0,0-.1.32.84.84,0,0,0,0,.29.54.54,0,0,0,.15.21.51.51,0,0,0,.22.11,1.1,1.1,0,0,0,.27,0,1.29,1.29,0,0,0,.35,0,1.66,1.66,0,0,0,.31-.12l.27-.19a1.88,1.88,0,0,0,.25-.24v-.89Z"/>
      <path class="cls-1" d="M212.71,88.93v6.29H212V88.93Z"/>
    </g>
    <path class="cls-1" d="M197.84,89.53a.52.52,0,0,1,0,.21.78.78,0,0,1-.11.18.52.52,0,0,1-.17.12.52.52,0,0,1-.4,0,.61.61,0,0,1-.16-.12.67.67,0,0,1-.11-.18.46.46,0,0,1,0-.21.52.52,0,0,1,0-.21.5.5,0,0,1,.11-.17.61.61,0,0,1,.16-.12.52.52,0,0,1,.4,0,.66.66,0,0,1,.17.12.45.45,0,0,1,.11.17A.65.65,0,0,1,197.84,89.53Zm-.15,1.35v4.33H197V90.88Z"/>
    <g>
      <path class="cls-2" d="M123.73,93.3c0,1.09.41,1.87,1.65,1.87a2,2,0,0,0,1.39-.54l.07.27c0,.1.07.17.19.17h.21a.2.2,0,0,0,.2-.19V91.15a.2.2,0,0,0-.19-.2h-.34a.21.21,0,0,0-.2.21v2.75a1.71,1.71,0,0,1-1.27.58c-.59,0-1-.38-1-1.17V91.15a.2.2,0,0,0-.19-.2h-.35a.21.21,0,0,0-.2.21V93.3Z"/>
      <path class="cls-3" d="M135,92.45c-1.1,0-1.7.58-1.7,1.37a1.27,1.27,0,0,0,1.31,1.35,1.89,1.89,0,0,0,1.32-.53l.08.28c0,.09.06.15.18.15h.2a.2.2,0,0,0,.2-.19V92.59c0-1.21-.26-1.75-1.35-1.75a4,4,0,0,0-1.48.28.17.17,0,0,0-.12.23l.08.26a.14.14,0,0,0,.2.1,3.93,3.93,0,0,1,1.28-.23c.61,0,.71.35.7,1.12A2.6,2.6,0,0,0,135,92.45Zm-.28,2.11a.71.71,0,0,1-.75-.74c0-.54.43-.83,1-.83a2,2,0,0,1,.9.16V94A1.56,1.56,0,0,1,134.68,94.56Z"/>
      <path class="cls-4" d="M137.55,93a2.16,2.16,0,0,0,2.19,2.16,1.94,1.94,0,0,0,1.64-.87.21.21,0,0,0-.08-.29l-.12-.08a.21.21,0,0,0-.32,0,1.45,1.45,0,1,1-1.12-2.41,1.31,1.31,0,0,1,1,.43c.1.08.15.18.31,0l.2-.16a.18.18,0,0,0,0-.29,1.87,1.87,0,0,0-1.52-.73A2.22,2.22,0,0,0,137.55,93Z"/>
      <path class="cls-3" d="M144.11,92.45c-1.1,0-1.71.58-1.71,1.37a1.27,1.27,0,0,0,1.32,1.35,1.92,1.92,0,0,0,1.32-.53l.08.28c0,.09.06.15.18.15h.2a.2.2,0,0,0,.2-.19V92.59c0-1.21-.26-1.75-1.35-1.75a4,4,0,0,0-1.48.28.17.17,0,0,0-.12.23l.08.26a.14.14,0,0,0,.2.1,3.93,3.93,0,0,1,1.28-.23c.61,0,.71.35.7,1.12A2.53,2.53,0,0,0,144.11,92.45Zm-.28,2.11a.71.71,0,0,1-.75-.74c0-.54.42-.83,1-.83a2,2,0,0,1,.9.16V94A1.56,1.56,0,0,1,143.83,94.56Z"/>
      <path class="cls-3" d="M148.75,90.84A2,2,0,0,0,146.7,93a2.07,2.07,0,0,0,2,2.18,2,2,0,0,0,1.31-.54l.06.28a.18.18,0,0,0,.18.16h.22a.2.2,0,0,0,.2-.19V89a.21.21,0,0,0-.2-.19h-.33a.2.2,0,0,0-.2.2v2.09A2,2,0,0,0,148.75,90.84Zm0,3.68A1.37,1.37,0,0,1,147.45,93a1.34,1.34,0,0,1,1.4-1.47,2.41,2.41,0,0,1,1,.25v2.07A1.56,1.56,0,0,1,148.72,94.52Z"/>
      <path class="cls-3" d="M153.72,90.84a2.17,2.17,0,0,0,0,4.34,2.77,2.77,0,0,0,1.57-.47c.16-.11.12-.17,0-.28l-.09-.12-.09-.12c-.08-.1-.14-.07-.26,0l0,0a2.11,2.11,0,0,1-1.06.31,1.46,1.46,0,0,1-1.43-1.34h3.07a.19.19,0,0,0,.2-.17,2.46,2.46,0,0,0,0-.28A1.85,1.85,0,0,0,153.72,90.84Zm1.19,1.77h-2.54a1.3,1.3,0,0,1,1.34-1.14A1.21,1.21,0,0,1,154.91,92.61Z"/>
      <path class="cls-4" d="M156.64,94.88a.22.22,0,0,0,.21.19h.33a.2.2,0,0,0,.2-.2V92.11a1.67,1.67,0,0,1,1.22-.58c.66,0,1,.38,1,1.17v2.18a.21.21,0,0,0,.2.19h.34a.2.2,0,0,0,.21-.2V92.7a3.61,3.61,0,0,0-.05-.59,1.93,1.93,0,0,1,1.3-.57c.61,0,1,.39,1,1.17v2.18a.19.19,0,0,0,.19.19h.35a.2.2,0,0,0,.2-.2V92.71c0-1.07-.41-1.86-1.65-1.86a2.62,2.62,0,0,0-1.6.68,1.52,1.52,0,0,0-1.36-.68,2,2,0,0,0-1.39.55l-.1-.32a.16.16,0,0,0-.17-.13h-.2a.22.22,0,0,0-.21.2v3.73Z"/>
      <path class="cls-4" d="M166.32,95.06l-.87,2.12a.17.17,0,0,0,.17.26H166a.23.23,0,0,0,.19-.12L169,91.19c.07-.13,0-.25-.16-.25h-.41a.21.21,0,0,0-.18.12l-1.49,3.15-1.59-3.15a.22.22,0,0,0-.18-.12h-.48c-.16,0-.22.1-.16.24Z"/>
      <path class="cls-2" d="M128.44,94.88a.19.19,0,0,0,.19.19H129a.2.2,0,0,0,.2-.2V92.11a2.16,2.16,0,0,1,1.38-.58c.6,0,1,.38,1,1.17v2.18a.19.19,0,0,0,.19.19h.36a.2.2,0,0,0,.2-.2V92.7c0-1.07-.42-1.86-1.66-1.86a2.42,2.42,0,0,0-1.49.55l-.1-.32a.15.15,0,0,0-.17-.13h-.2a.21.21,0,0,0-.2.2v3.74Z"/>
    </g>
  </g>
  <g>
    <path id="base" class="cls-5" d="M254.82,34.31a10.17,10.17,0,0,0-7.67-3.59h0l-.63,0L68.25,42.38h-.06c-8.72.86-13.7,6.15-14.42,15.29l-.08,1.06-.5,0a3.67,3.67,0,0,0-.75.07,3.35,3.35,0,0,0-.72.17V55.21c1.86-1.2,2.57-4.27,3.68-9.7.14-.71.29-1.42.44-2.14a51.47,51.47,0,0,1,5.32-8.56c3.37-4.7,6.85-9.56,6.49-15.28l-.23-.84C63.62,11.25,58.53,6.5,51.89,4.16a37.29,37.29,0,0,0-5.24-1.4c-.59-.12-1.11-.24-1.54-.35l-.15,0A65.49,65.49,0,0,0,33.13,1.06a35.07,35.07,0,0,0-5,.34,25,25,0,0,0-6.28,2.23C19.5,4.7,17.07,5.8,14.94,6l-.52.1a12.94,12.94,0,0,0-7.49,5.46l-.26.37-.21.37A15.72,15.72,0,0,0,5.31,22.49l.05.17c.58,1.83,1.26,3.62,1.92,5.33a46.12,46.12,0,0,1,3,10.28l.27.76a20.18,20.18,0,0,1,1.31,3.68c.85,3,1.92,6.64,4.79,9.57v4.35S6.07,61.77,3,64.06c-1.56,1.16-3.61,4,.14,6.36,2.89,1.83,12.06,6.63,12,6.9A10.82,10.82,0,0,0,17,84.77,10.09,10.09,0,0,0,24.83,88,12.57,12.57,0,0,0,33,85.12a9.53,9.53,0,0,0,1.29-1.44,8.23,8.23,0,0,0,1.29,1.44A12.51,12.51,0,0,0,43.73,88a10.08,10.08,0,0,0,7.81-3.22,8.83,8.83,0,0,0,1.74-7.49l-.11-.62c.06,0,1.64-.78,1.64-.78s0,0,0,.13c.18,2,.5,5.64,5.89,6.1h.12l185.76,5h.28a10.58,10.58,0,0,0,7.82-3.51,12,12,0,0,0,3.15-8.14V42.39A12.17,12.17,0,0,0,254.82,34.31Z"/>
    <path id="brown" class="cls-6" d="M68.4,44.52,246.65,32.88c5-.32,9.06,4.28,9.06,9.51V75.46c0,5.23-4.08,9.65-9.06,9.51L60.9,80c-3.82-.33-3.79-2.57-4-4.75,13.14-2.38,5.72-18.2-1-17.38.74-9.52,6.23-12.7,12.48-13.32Z"/>
    <g id="face">
      <g>
        <path class="cls-7" d="M56.19,61.86h0a14.36,14.36,0,0,1,5.47,3.08,1,1,0,0,1,.46.77c0,.47-.35.93-1.07,1.37a45.86,45.86,0,0,0-3.74,2.79,37.35,37.35,0,0,1-3.71,2.67,1.21,1.21,0,0,1-.54.14,1,1,0,0,1-.71-.28.88.88,0,0,1-.06-1.27,4,4,0,0,1,1.53-1.2,13.22,13.22,0,0,0,2-1.35c1-.76,1.6-1.27,2-1.5.79-.4,1.2-.68,1.2-.85a.23.23,0,0,0,0-.11,4,4,0,0,0-2.16-1.72c-.89-.25-1.8-.52-2.71-.8a4.91,4.91,0,0,1-2.38-1.39.3.3,0,0,1,0-.19,1.12,1.12,0,0,1,.39-.73,1.06,1.06,0,0,1,.73-.39,1.65,1.65,0,0,1,.44,0,4.33,4.33,0,0,1,1.55.38l1.45.63M13.58,61a1.59,1.59,0,0,1,1,.33,1,1,0,0,1,.39.77.78.78,0,0,1-.24.57,10.45,10.45,0,0,1-3.71,2.11,7.35,7.35,0,0,0-3.5,2.4,35.94,35.94,0,0,0,4,2L15.66,71a.81.81,0,0,1,.51.79A1.29,1.29,0,0,1,15.64,73a2.09,2.09,0,0,1-1.35.48,1.43,1.43,0,0,1-.58-.12,8.14,8.14,0,0,0-.9-.76q-3.6-2-7.7-3.74c-.27-.11-.55-.22-.82-.31a1,1,0,0,1-.6-.7,3,3,0,0,1,1-2.19,20,20,0,0,1,4.15-2.32A18.18,18.18,0,0,0,13,61Z"/>
        <path class="cls-7" d="M30.72,60.92a5.72,5.72,0,0,0-1.26-1.39,2.29,2.29,0,0,0-1.35-.41,1.13,1.13,0,0,0-.47.09l-3,1a1.79,1.79,0,0,1-.59.08,1.53,1.53,0,0,1-1-.28,4.28,4.28,0,0,1-.91-1.11l-.83.56A5.77,5.77,0,0,0,22.65,61a2.44,2.44,0,0,0,1.41.37,2.78,2.78,0,0,0,.75-.11l2.77-1a1.63,1.63,0,0,1,.59-.11,1.39,1.39,0,0,1,.86.23,4.4,4.4,0,0,1,.9,1l.79-.44"/>
        <path class="cls-8" d="M51.16,77.63c1.52,9.1-9.6,10-14.17,5.89-3.16-2.82-2.27-6.75,2.26-6.5,4,.21,6.33,5.35,11.91.61"/>
        <path class="cls-8" d="M17.37,77.63c-1.52,9.1,9.6,10,14.17,5.89,3.16-2.82,2.27-6.75-2.26-6.5-4,.21-6.33,5.35-11.91.61"/>
        <path class="cls-7" d="M28.3,64.43a3.23,3.23,0,0,0-1.88-.53,3.08,3.08,0,0,0-2.19.8,2.75,2.75,0,0,0-.76,2.55,4.54,4.54,0,0,0,1,2.37,2.49,2.49,0,0,0,2,1,3.1,3.1,0,0,0,1.47-.4c.9-.54,1.34-1.56,1.34-3.09A3.22,3.22,0,0,0,28.3,64.43Zm-1.92,3.62a1,1,0,1,1,1-1A1,1,0,0,1,26.38,68.05Z"/>
        <path class="cls-7" d="M35,76.24a2.2,2.2,0,0,0,.81-.15,3.17,3.17,0,0,0,.7-.38,4.9,4.9,0,0,0,.57-.54,4,4,0,0,0,.44-.6,4.36,4.36,0,0,0,.32-.59,2.69,2.69,0,0,0,.17-.46l0-.09a.41.41,0,0,1-.05-.09s0,0,0,0A4.36,4.36,0,0,1,37,74.39,2.83,2.83,0,0,1,36,75a3.46,3.46,0,0,1-1.17.19,3.24,3.24,0,0,1-1-.14,2.56,2.56,0,0,1-.77-.4,3.82,3.82,0,0,1-.63-.64,5.07,5.07,0,0,1-.5-.83l0,0a.22.22,0,0,0-.05.08s0,.06,0,.08a6.15,6.15,0,0,0,.52,1.1,4,4,0,0,0,.7.91,3.07,3.07,0,0,0,.86.63,2.81,2.81,0,0,0,1,.22"/>
        <path class="cls-7" d="M43.82,64.37a3.23,3.23,0,0,0-1.88-.54,3.08,3.08,0,0,0-2.19.81A2.75,2.75,0,0,0,39,67.19a4.44,4.44,0,0,0,1,2.37,2.5,2.5,0,0,0,2,1,3.07,3.07,0,0,0,1.47-.4,3.29,3.29,0,0,0,1.35-3.09C44.77,65.72,44.45,64.81,43.82,64.37Zm-2.2,3.79a1,1,0,1,1,1-1A1,1,0,0,1,41.62,68.16Z"/>
      </g>
      <g id="Cap">
        <g>
          <path class="cls-9" d="M50.39,53.52c1.56-.68,2.35-5.92,3.4-10.8,3.78-8.65,12.23-15,11.72-23C58.58,6.1,48.88,5.62,44.73,4.54c-5.39-1-10.77-1.73-16.14-1-3.82.57-8.78,4.25-13.36,4.56a11.1,11.1,0,0,0-6.67,5,13.6,13.6,0,0,0-1,8.89c1.67,5.33,4.25,10.17,5,16,1.77,3.11,1.89,9,5.92,13C30.86,45.12,40.94,49.67,50.39,53.52Z"/>
          <path class="cls-10" d="M50.24,53.58l-1.16-.48C39.81,49.32,30.22,45.4,18.4,51l-.07,0,0,0c-2.63-2.59-3.6-5.92-4.45-8.88A20.1,20.1,0,0,0,12.34,38v0A48.47,48.47,0,0,0,9.17,27.25C8.53,25.56,7.85,23.8,7.3,22a13.76,13.76,0,0,1,1-9l.28-.4A10.94,10.94,0,0,1,15,8c2.52-.18,5.13-1.36,7.64-2.5A23,23,0,0,1,28.42,3.4c5.11-.73,10.15-.15,16.15,1l1.64.37c4.57,1,13.07,2.76,19.22,14.82v0c.31,5-2.8,9.36-6.11,14a51.22,51.22,0,0,0-5.62,9.13c-.16.76-.32,1.56-.48,2.34-.87,4.25-1.62,7.92-3,8.52ZM30.43,48c6.72,0,12.79,2.48,18.74,4.91l1.07.44c1.23-.61,2-4.37,2.82-8.35.16-.78.32-1.58.49-2.37a51.64,51.64,0,0,1,5.65-9.18c3.28-4.58,6.37-8.9,6.07-13.82C59.15,7.69,51,6,46.19,5c-.63-.13-1.16-.24-1.65-.37-6-1.1-11-1.68-16.08-1a24,24,0,0,0-5.68,2.05C20.25,6.83,17.64,8,15.09,8.19a10.74,10.74,0,0,0-6.32,4.62l-.27.38a13.54,13.54,0,0,0-1,8.8c.55,1.76,1.22,3.51,1.88,5.2a48.4,48.4,0,0,1,3.16,10.75,20.24,20.24,0,0,1,1.5,4.14c.84,2.9,1.8,6.19,4.35,8.73A27.68,27.68,0,0,1,30.43,48Z"/>
        </g>
        <g>
          <path class="cls-11" d="M18.87,54.42c4.44-2.36,15.58-8.19,30.48,2a22.89,22.89,0,0,0,.14-7.2c-.43-5.68-22.68-12.63-30.75-.12l.13,5.28"/>
          <path class="cls-12" d="M49.39,56.54l-.06,0C43,52.12,36.52,50.19,30.19,50.76a29.38,29.38,0,0,0-11.3,3.7l-.06,0v-.08l-.13-5.29h0a15,15,0,0,1,9.83-6.52,25.89,25.89,0,0,1,11.7.37c5.3,1.35,9.12,3.94,9.3,6.29a23,23,0,0,1-.14,7.21Zm-17-6c5.61,0,11.3,2,16.94,5.82a23,23,0,0,0,.12-7.12c-.18-2.28-4.06-4.9-9.24-6.22a25.85,25.85,0,0,0-11.66-.36,14.91,14.91,0,0,0-9.77,6.46l.13,5.19a29.21,29.21,0,0,1,11.27-3.68C30.92,50.6,31.65,50.57,32.38,50.57Z"/>
        </g>
        <g>
          <g id="_1" data-name="1">
            <path class="cls-13" d="M12.6,12.29C11.92,15.75,15,26.67,14,32.4c-.52-3-2.44-9-2.36-12.33-.92-2-1.85-4.45-2.87-5.39s2.11-5.83,3.88-2.39"/>
            <path class="cls-14" d="M19.59,47.45v0c-4-4.72-5.7-12.85-7.1-19.7-1.11-5.44-2.06-10.08-3.89-11.54h0a2.28,2.28,0,0,1-.42-1,3.51,3.51,0,0,1,.41-2A4.37,4.37,0,0,1,10,11.5,3,3,0,0,1,11.29,11v.09a2.94,2.94,0,0,0-1.28.5,11.61,11.61,0,0,0-1.08,1.61c-.9,1.8,1,1.71,1.71,2.69,1.85,1.49,2,6.38,3.12,11.84,1.4,6.84,1.86,14.95,5.87,19.65h0s0,0,0,0l-.06.07"/>
          </g>
          <g id="_2" data-name="2">
            <path class="cls-15" d="M19.44,10.88c-.69,3.45,1.07,11.39,0,17.13-.52-3-2.44-9-2.36-12.32-.93-2-2-4.32-2.69-5.51s2.47-2.51,5,.7"/>
            <path class="cls-14" d="M18.1,9.66a2.26,2.26,0,0,0-2-.46,1.72,1.72,0,0,0-.77.28.87.87,0,0,0-.38.59c0,.36-.28.42,0,1.09h0c2.24,3,4,8.07,4.42,13.42.6,6.79-.19,14.31,4.31,19.64l-.07.06c-4.52-5.36-5.19-12.89-5.78-19.69-.48-5.34-.91-10.24-3.13-13.25h0a2.09,2.09,0,0,1-.53-1.54,1,1,0,0,1,.41-.65,1.68,1.68,0,0,1,.83-.3,4.09,4.09,0,0,1,2.69.74l-.06.07"/>
          </g>
          <g id="_3" data-name="3">
            <path class="cls-16" d="M30.44,4.8C32.52,8.27,28.7,23.89,28,33.7c-.06.83-7.38-32.39,2.42-28.9"/>
            <path class="cls-17" d="M29.57,42.36A93,93,0,0,1,24.26,17a27.26,27.26,0,0,1,.68-8.54c.65-2.22,1.79-3.68,3.56-3.94a4.85,4.85,0,0,1,1.93.14l0,.09a4.52,4.52,0,0,0-1.92.06c-1.48.34-1.3,1.26-2.27,3.35a22.23,22.23,0,0,0-.72,8.27c1.26,8.24,2.81,19.48,4.15,25.87l-.07,0"/>
          </g>
          <path id="_4" data-name="4" class="cls-18" d="M36.47,41.83c-.1-.67-.19-1.35-.29-2C34.64,28.67,32.75,15.07,39.37,5.3l.08,0c-2.71,7.23-3.08,21-3.4,25.44-.14,1.92.08,6,.23,9,.09.69.2,1.37.29,2.05l-.1,0"/>
          <path id="_5" data-name="5" class="cls-19" d="M43.65,43.26c.23-5.76.84-12.5,1.4-18.34,1.39-7.36,5.13-10.84,6.11-18.28l0-.09a50.63,50.63,0,0,0-6.6,18.39,88.13,88.13,0,0,0-.83,18.32h-.1"/>
          <g id="_6" data-name="6">
            <path class="cls-20" d="M61,15.38c-3,9.24-6.54,18.27-10.14,27.41.1-12.1,6.58-26.66,10.14-27.41"/>
            <path class="cls-14" d="M49.1,46.86c1.58-1.64,1.69-4.16,1.83-7.09A23.62,23.62,0,0,1,52.51,31c0-.12.09-.31.16-.57.88-3.05,4.39-15.34,8.48-15.12v.09c-3.21-.12-7.3,12-8.27,15.07-.07.25-.09.41-.13.54h0c-1.15,3-1.22,6-1.6,8.74-.13,2.94-.38,5.48-2,7.14l-.06,0"/>
          </g>
        </g>
      </g>
    </g>
    <g id="name">
      <path class="cls-5" d="M89.28,70.51a1.41,1.41,0,0,1-.38.77,11.11,11.11,0,0,1-8.94,4,11.92,11.92,0,0,1-9.23-3.87,13.45,13.45,0,0,1-3.46-9.46,13.72,13.72,0,0,1,3.38-9.38,11.42,11.42,0,0,1,9-4c3.94,0,7,1.2,9.28,3.63a1.12,1.12,0,0,1,.36.7A10.56,10.56,0,0,1,88,55.4a14.52,14.52,0,0,1-1.59,2.49A.53.53,0,0,1,86,58a5.23,5.23,0,0,1-.92-.73A8.94,8.94,0,0,0,83.18,56a6.53,6.53,0,0,0-3-.73,5.23,5.23,0,0,0-4.29,2,7.08,7.08,0,0,0-1.48,4.59,7.28,7.28,0,0,0,1.48,4.64,5.2,5.2,0,0,0,4.29,2,6.81,6.81,0,0,0,3-.69,9.87,9.87,0,0,0,1.91-1.27,3.85,3.85,0,0,1,.89-.69.51.51,0,0,1,.36.2c.19.23.72,1,1.59,2.27a13,13,0,0,1,1.33,2.21Z"/>
      <path class="cls-5" d="M115.46,61.9a13.28,13.28,0,0,1-3.64,9.51,13.21,13.21,0,0,1-18.75,0,13.17,13.17,0,0,1-3.66-9.48,13.28,13.28,0,0,1,3.66-9.51,13.05,13.05,0,0,1,18.71,0,13.3,13.3,0,0,1,3.68,9.51Zm-6.92,0a6.81,6.81,0,0,0-1.67-4.64,5.63,5.63,0,0,0-4.44-2,5.54,5.54,0,0,0-4.36,2.08A7.16,7.16,0,0,0,98,66.54a5.92,5.92,0,0,0,8.86-.11,6.73,6.73,0,0,0,1.73-4.57Z"/>
      <path class="cls-5" d="M140.85,61.74A13.56,13.56,0,0,1,137.39,71a11.27,11.27,0,0,1-8.56,3.69c-.71,0-2.65,0-5.83,0-.6,0-1.49,0-2.69-.06s-2.1-.06-2.7-.06c-.35,0-.53-.15-.53-.42,0-1.33.06-3.34.15-6s.15-4.67.15-6,0-3.48-.15-6.26-.15-4.86-.15-6.26c0-.25.18-.4.53-.45.87-.09,2.28-.14,4.26-.14,3.75,0,6.18.06,7.29.16a13.92,13.92,0,0,1,6.78,2.19A11.11,11.11,0,0,1,139.57,56a13.51,13.51,0,0,1,1.28,5.74Zm-7,0a7,7,0,0,0-1.84-5,6.38,6.38,0,0,0-4.94-2c-1.87,0-2.81.25-2.81.74,0,.72,0,1.8,0,3.23s0,2.51,0,3.23,0,1.76,0,3.16,0,2.49,0,3.2c0,.53,1,.79,2.91.79a6.29,6.29,0,0,0,5-2.09,7.81,7.81,0,0,0,1.7-5.22Z"/>
      <path class="cls-5" d="M161.22,69a23,23,0,0,1-.31,2.87,11.13,11.13,0,0,1-.58,2.71.69.69,0,0,1-.61.34,3.9,3.9,0,0,1-.54-.06c-.89-.12-3.48-.18-7.79-.18l-4.19,0-4.15,0c-.4,0-.61-.18-.61-.53q0-2,.23-6.12t.23-6.12q0-2.07-.22-7.73c0-1-.1-2.41-.21-4.34l0-.26c0-.28.13-.41.46-.41.91,0,2.26,0,4.06.07s3.16.07,4.07.07,2.23,0,4-.07,3.13-.07,4-.07c.62,0,1,.23,1.09.71.07.28.16,1.11.29,2.54s.19,2.27.19,2.57-.12.38-.36.38l-.39,0c-3.24-.26-6.15-.4-8.73-.4-.65,0-1,.15-1.18.46a5.67,5.67,0,0,0-.09,1.39,2.57,2.57,0,0,0,.36,1.64,1.55,1.55,0,0,0,1.18.34l.71,0c.35,0,.64,0,.87,0,1.54,0,3.09,0,4.66-.13l1-.09c.42,0,.75-.07,1-.07s.44.14.44.41a26.9,26.9,0,0,0-.33,2.79,28.34,28.34,0,0,0-.14,2.91c0,.24-.18.36-.53.36l-1.65-.18c-.69-.07-2.28-.1-4.75-.1h-1.93c-.5,0-.8.12-.88.36,0,.06,0,.45,0,1.13a5.44,5.44,0,0,0,.18,1.79c.21.46,1,.73,2.34.82h2.67c.65,0,1.61-.07,2.89-.18s2.23-.17,2.85-.17c.26,0,.4.21.4.65Z"/>
      <path class="cls-21" d="M230.27,69.42a22.63,22.63,0,0,1-.3,2.77,10.39,10.39,0,0,1-.57,2.6.66.66,0,0,1-.58.33l-.54-.05c-.85-.11-3.37-.17-7.54-.17l-4.06,0-4,0c-.39,0-.58-.17-.58-.51,0-1.31.07-3.26.22-5.89s.22-4.58.22-5.89-.07-3.8-.21-7.44c0-.93-.1-2.32-.19-4.18l0-.25c0-.27.12-.4.44-.4.88,0,2.19,0,3.94.07s3.07.07,3.95.07,2.15,0,3.89-.07,3-.07,3.89-.07c.61,0,1,.23,1.06.69.05.27.14,1.07.27,2.44s.2,2.17.2,2.47a.33.33,0,0,1-.36.37l-.37,0c-3.15-.25-6-.38-8.47-.38-.63,0-1,.15-1.15.44a5.31,5.31,0,0,0-.09,1.34,2.5,2.5,0,0,0,.35,1.58,1.53,1.53,0,0,0,1.15.33l.69,0c.34,0,.62,0,.84,0,1.48,0,3,0,4.52-.12l1-.09c.4,0,.71-.07,1-.07s.43.13.43.4a23.94,23.94,0,0,0-.32,2.67,26.44,26.44,0,0,0-.14,2.81c0,.23-.17.35-.52.35l-1.59-.18c-.67-.07-2.21-.1-4.61-.1h-1.88c-.48,0-.76.11-.84.34,0,.06,0,.42,0,1.09a5.31,5.31,0,0,0,.17,1.71c.2.45,1,.71,2.27.79h2.58c.62,0,1.55-.05,2.79-.17s2.16-.17,2.77-.17c.27,0,.41.23.41.64Z"/>
      <path class="cls-21" d="M249.78,56c0,.12-.13.19-.36.19-.88,0-2.22-.08-4-.22s-3.15-.23-4.05-.23a8.49,8.49,0,0,0-2,.12c-.44.2-.66.75-.66,1.68,0,1.11.28,1.74.85,1.89a4.74,4.74,0,0,0,1.08.09c.81,0,2,0,3.65-.13s2.84-.13,3.66-.13c.39,0,.58,1,.58,3.07a13.52,13.52,0,0,1-.19,3.12.46.46,0,0,1-.47.31,6.68,6.68,0,0,0-1.12-.12c-1.26-.12-3.18-.17-5.74-.17-.83,0-1.29,0-1.4,0-.6.09-.9.34-.9.76,0,1.65.07,3.56.21,5.71.12,2,.17,2.82.17,2.61,0,.3-.37.47-1.1.52a15.47,15.47,0,0,0-1.58,0,25.37,25.37,0,0,1-4.26-.22c-.35-.08-.52-.26-.52-.55,0-1.3,0-3.23.13-5.84s.13-4.53.13-5.84c0-1.54-.07-3.48-.21-5.8-.21-3.61-.32-5.54-.34-5.81l0-.22c0-.29.17-.44.53-.44.88,0,2.2,0,4,.05s3.08,0,4,0,2.36-.07,4.26-.21,3.3-.21,4.25-.21c.59,0,.92.24,1,.71s0,1.25.07,2.26c0,.26.1.76.23,1.5a8.37,8.37,0,0,1,.2,1.5Z"/>
      <path class="cls-21" d="M162.93,56.67a15,15,0,0,0,.84,10.62A14.2,14.2,0,0,0,171.1,75a12.21,12.21,0,0,0,10.37-.29A11.69,11.69,0,0,0,188.18,67a1.79,1.79,0,0,0,.07-.45,23.55,23.55,0,0,0-2.07-1.42c-1.46-.93-2.09-1.31-2.36-1.46-.08.14-.18.36-.32.67a10.47,10.47,0,0,1-1.4,2.31,8.07,8.07,0,0,1-2.91,2.27,6.18,6.18,0,0,1-5.75-.12A9.55,9.55,0,0,1,169,58.66a6.4,6.4,0,0,1,3.72-4.43,7.73,7.73,0,0,1,3.6-.69,11,11,0,0,1,2.7.53l.78.23a24.41,24.41,0,0,0,.37-2.92,14.89,14.89,0,0,0,.15-2.88,1,1,0,0,0-.34-.2,10.75,10.75,0,0,0-4.26-.87,14.29,14.29,0,0,0-6,1.45A12,12,0,0,0,162.93,56.67Z"/>
      <path class="cls-21" d="M209.82,68.62c-.12-2.55-.19-4.45-.19-5.72s.06-3.38.17-6.1.17-4.73.17-6.07c0-.28-.17-.41-.52-.41s-.87,0-1.58,0-1.22.05-1.56.05-.89,0-1.59-.05-1.23,0-1.57,0-.44.18-.44.53c0,.86,0,2.13.13,3.84s.12,3,.12,3.8c0,.4-.14.64-.43.72a35.41,35.41,0,0,1-4.39.14,33,33,0,0,1-4.53-.14q-.33-.12-.33-.72c0-.88.06-2.19.19-3.93s.19-3.06.19-3.94c0-.21-.1-.31-.3-.31-.38,0-.94,0-1.71,0s-1.33,0-1.71,0-.92,0-1.66,0-1.29,0-1.65,0-.37.12-.37.38c0,1.35.06,3.39.18,6.1s.17,4.76.17,6.11c0,.28,0,.59,0,.92l.27.18c2.39,1.55,2.46,1.71,2.56,1.93a2.11,2.11,0,0,1,0,1.37,12.79,12.79,0,0,1-3.16,5.63c0,.53,0,1,0,1.39a.53.53,0,0,0,.51.55,25.35,25.35,0,0,0,3,.11,27.63,27.63,0,0,0,3.32-.11.54.54,0,0,0,.48-.62c0-.9,0-2.27-.08-4.08s-.09-3.18-.09-4.09c0-.46.13-.72.38-.78a34.85,34.85,0,0,1,4.32-.14,33.86,33.86,0,0,1,4.28.14c.27.07.4.33.4.78,0,.93-.05,2.31-.13,4.16s-.14,3.24-.14,4.15c0,.25.17.41.49.48a25.7,25.7,0,0,0,3.27.11c1.31,0,2.33,0,3-.11a1.28,1.28,0,0,0,.5-.09c.1,0,.16-.21.16-.46Q210,72.43,209.82,68.62Z"/>
    </g>
  </g>
</svg>
