<?xml version="1.0" encoding="iso-8859-1"?>
<!-- Generator: Adobe Illustrator 19.0.0, SVG Export Plug-In . SVG Version: 6.00 Build 0)  -->
<svg version="1.1" id="Layer_1" xmlns="http://www.w3.org/2000/svg" xmlns:xlink="http://www.w3.org/1999/xlink" x="0px" y="0px"
	 viewBox="0 0 503.6 503.6" style="enable-background:new 0 0 503.6 503.6;" xml:space="preserve">
<g>
	<path style="fill:#C3D7DD;" d="M462.6,376.4c-0.8,0-1.6,0-1.6-0.8l-7.2-4c-1.6-0.8-2.4-3.2-1.6-5.6c0.8-1.6,3.2-2.4,5.6-1.6l6.4,4
		c1.6,0.8,2.4,3.2,1.6,5.6C465,375.6,463.4,376.4,462.6,376.4z M40.2,376.4c-1.6,0-2.4-0.8-3.2-1.6c-0.8-1.6-0.8-4,1.6-5.6l13.6-8
		c1.6-0.8,4-0.8,5.6,1.6c0.8,1.6,0.8,4-1.6,5.6l-13.6,8C41.8,375.6,41,376.4,40.2,376.4z M442.6,364.4c-0.8,0-1.6,0-1.6-0.8l-13.6-8
		c-1.6-0.8-2.4-3.2-1.6-5.6c0.8-1.6,3.2-2.4,5.6-1.6l13.6,8c1.6,0.8,2.4,3.2,1.6,5.6C445,363.6,443.4,364.4,442.6,364.4z
		 M68.2,360.4c-1.6,0-2.4-0.8-3.2-1.6c-0.8-1.6-0.8-4,1.6-5.6l13.6-8c1.6-0.8,4-0.8,5.6,1.6s0.8,4-1.6,5.6l-13.6,8
		C69.8,359.6,69,360.4,68.2,360.4z M414.6,348.4c-0.8,0-1.6,0-1.6-0.8l-13.6-8c-1.6-0.8-2.4-3.2-1.6-5.6c0.8-1.6,3.2-2.4,5.6-1.6
		l13.6,8c1.6,0.8,2.4,3.2,1.6,5.6C417,347.6,416.2,348.4,414.6,348.4z M96.2,344.4c-1.6,0-2.4-0.8-3.2-1.6c-0.8-1.6-0.8-4,1.6-5.6
		l13.6-8c1.6-0.8,4-0.8,5.6,1.6c0.8,1.6,0.8,4-1.6,5.6l-13.6,8C97,343.6,96.2,344.4,96.2,344.4z M386.6,332.4c-0.8,0-1.6,0-1.6-0.8
		l-13.6-8c-1.6-0.8-2.4-3.2-1.6-5.6c0.8-1.6,3.2-2.4,5.6-1.6l13.6,8c1.6,0.8,2.4,3.2,1.6,5.6C389.8,331.6,388.2,332.4,386.6,332.4z
		 M123.4,328.4c-1.6,0-2.4-0.8-3.2-1.6c-0.8-1.6-0.8-4,1.6-5.6l13.6-8c1.6-0.8,4-0.8,5.6,1.6c0.8,1.6,0.8,4-1.6,5.6l-13.6,8
		C125,327.6,124.2,328.4,123.4,328.4z M359.4,316.4c-0.8,0-1.6,0-1.6-0.8l-13.6-8c-1.6-0.8-2.4-3.2-1.6-5.6c0.8-1.6,3.2-2.4,5.6-1.6
		l13.6,8c1.6,0.8,2.4,3.2,1.6,5.6C361.8,315.6,360.2,316.4,359.4,316.4z M151.4,312.4c-1.6,0-2.4-0.8-3.2-1.6
		c-0.8-1.6-0.8-4,1.6-5.6l13.6-8c1.6-0.8,4-0.8,5.6,1.6c0.8,1.6,0.8,4-1.6,5.6l-13.6,8C153,311.6,152.2,312.4,151.4,312.4z
		 M331.4,300.4c-0.8,0-1.6,0-1.6-0.8l-14.4-8c-1.6-0.8-2.4-3.2-1.6-5.6c0.8-1.6,3.2-2.4,5.6-1.6l13.6,8c1.6,0.8,2.4,3.2,1.6,5.6
		C333.8,299.6,333,300.4,331.4,300.4z M178.6,296.4c-1.6,0-2.4-0.8-3.2-1.6c-0.8-1.6-0.8-4,1.6-5.6l13.6-8c1.6-0.8,4-0.8,5.6,1.6
		c0.8,1.6,0.8,4-1.6,5.6l-13.6,8C180.2,295.6,179.4,296.4,178.6,296.4z M303.4,284.4c-0.8,0-1.6,0-1.6-0.8l-13.6-8
		c-1.6-0.8-2.4-3.2-1.6-5.6c0.8-1.6,3.2-2.4,5.6-1.6l13.6,8c1.6,0.8,2.4,3.2,1.6,5.6C306.6,283.6,305,284.4,303.4,284.4z
		 M206.6,280.4c-1.6,0-2.4-0.8-3.2-1.6c-0.8-1.6-0.8-4,1.6-5.6l13.6-8c1.6-0.8,4-0.8,5.6,1.6c0.8,1.6,0.8,4-1.6,5.6l-13.6,8
		C208.2,279.6,207.4,280.4,206.6,280.4z M276.2,268.4c-0.8,0-1.6,0-1.6-0.8l-13.6-8c-1.6-0.8-2.4-3.2-1.6-5.6
		c0.8-1.6,3.2-2.4,5.6-1.6l13.6,8c1.6,0.8,2.4,3.2,1.6,5.6C278.6,267.6,277,268.4,276.2,268.4z M234.6,264.4c-1.6,0-2.4-0.8-3.2-1.6
		c-0.8-1.6-0.8-4,1.6-5.6l13.6-8c1.6-0.8,4-0.8,5.6,1.6c0.8,1.6,0.8,4-1.6,5.6l-13.6,8C235.4,263.6,235.4,264.4,234.6,264.4z"/>
	<path style="fill:#C3D7DD;" d="M255.4,255.6c-2.4,0-4-1.6-4-4v-16c0-2.4,1.6-4,4-4c2.4,0,4,1.6,4,4v16
		C259.4,254,257.8,255.6,255.4,255.6z M255.4,223.6c-2.4,0-4-1.6-4-4v-16c0-2.4,1.6-4,4-4c2.4,0,4,1.6,4,4v16
		C259.4,222,257.8,223.6,255.4,223.6z M255.4,191.6c-2.4,0-4-1.6-4-4v-16c0-2.4,1.6-4,4-4c2.4,0,4,1.6,4,4v16
		C259.4,190,257.8,191.6,255.4,191.6z M255.4,159.6c-2.4,0-4-1.6-4-4v-16c0-2.4,1.6-4,4-4c2.4,0,4,1.6,4,4v16
		C259.4,158,257.8,159.6,255.4,159.6z M255.4,127.6c-2.4,0-4-1.6-4-4v-16c0-2.4,1.6-4,4-4c2.4,0,4,1.6,4,4v16
		C259.4,126,257.8,127.6,255.4,127.6z M255.4,95.6c-2.4,0-4-1.6-4-4v-16c0-2.4,1.6-4,4-4c2.4,0,4,1.6,4,4v16
		C259.4,94,257.8,95.6,255.4,95.6z M255.4,63.6c-2.4,0-4-1.6-4-4v-16c0-2.4,1.6-4,4-4c2.4,0,4,1.6,4,4v16
		C259.4,62,257.8,63.6,255.4,63.6z M255.4,31.6c-2.4,0-4-1.6-4-4V12.4c0-2.4,1.6-4,4-4c2.4,0,4,1.6,4,4v15.2
		C259.4,30,257.8,31.6,255.4,31.6z"/>
</g>
<g>
	<path style="fill:#973FBC;" d="M251.4,503.6c-1.6,0-2.4,0-4-0.8L37.8,380.4c-2.4-1.6-2.4-4-2.4-7.2V130c0-3.2,0-5.6,2.4-7.2
		L248.2,1.2c2.4-1.6,4.8-1.6,8,0l209.6,121.6c2.4,1.6,2.4,4,2.4,7.2v244c0,3.2,0,5.6-2.4,7.2L254.6,502
		C253.8,502.8,253,503.6,251.4,503.6z M51.4,369.2l200,117.6l200-117.6V134l-200-116.8L51.4,134V369.2z"/>
	<path style="fill:#973FBC;" d="M251.4,258.8c-1.6,0-2.4,0-4-0.8L44.2,141.2c-4-2.4-8-9.6-5.6-12.8c2.4-4,8-4,12-2.4l200.8,116
		l202.4-116.8c4-2.4,8-0.8,10.4,2.4c2.4,4,1.6,8.8-2.4,11.2L255.4,258C253.8,258.8,253,258.8,251.4,258.8z"/>
	<path style="fill:#973FBC;" d="M251.4,497.2c-4.8,0-8-3.2-8-8V250c0-4.8,3.2-8,8-8c4.8,0,8,3.2,8,8v239.2
		C259.4,493.2,256.2,497.2,251.4,497.2z"/>
</g>
<g>
</g>
<g>
</g>
<g>
</g>
<g>
</g>
<g>
</g>
<g>
</g>
<g>
</g>
<g>
</g>
<g>
</g>
<g>
</g>
<g>
</g>
<g>
</g>
<g>
</g>
<g>
</g>
<g>
</g>
</svg>
